<svg width="20" height="20" viewBox="0 0 20 20" fill="none" xmlns="http://www.w3.org/2000/svg">
<g clip-path="url(#clip0)">
<path d="M19.6549 16.5518H0.344599C0.15417 16.5518 -0.000244141 16.3973 -0.000244141 16.2069V3.79315C-0.000244141 3.60272 0.15417 3.4483 0.344599 3.4483H19.6549C19.8453 3.4483 19.9998 3.60272 19.9998 3.79315V16.2069C19.9997 16.3974 19.8453 16.5518 19.6549 16.5518Z" fill="#F5F5F5"/>
<path d="M19.9997 4.45631H-0.000244141V3.79315C-0.000244141 3.60272 0.15417 3.4483 0.344599 3.4483H19.6549C19.8453 3.4483 19.9998 3.60272 19.9998 3.79315L19.9997 4.45631Z" fill="#FF4B55"/>
<path d="M19.9997 7.4801H-0.000244141V8.48807H19.9997V7.4801Z" fill="#FF4B55"/>
<path d="M19.9997 5.46411H-0.000244141V6.47208H19.9997V5.46411Z" fill="#FF4B55"/>
<path d="M19.9997 10.504H0.344599C0.15417 10.504 -0.000244141 10.3496 -0.000244141 10.1592V9.49603H19.9997V10.504Z" fill="#FF4B55"/>
<path d="M19.9997 13.5282H-0.000244141V14.5362H19.9997V13.5282Z" fill="#FF4B55"/>
<path d="M19.6549 16.5517H0.344599C0.15417 16.5517 -0.000244141 16.3973 -0.000244141 16.2069V15.5438H19.9997V16.2069C19.9997 16.3974 19.8453 16.5517 19.6549 16.5517Z" fill="#FF4B55"/>
<path d="M19.9997 11.5121H-0.000244141V12.5201H19.9997V11.5121Z" fill="#FF4B55"/>
<path d="M8.96525 3.4483H0.344599C0.15417 3.4483 -0.000244141 3.60268 -0.000244141 3.79311V10.1591C-0.000244141 10.3495 0.15417 10.504 0.344599 10.504H8.96529C9.15571 10.504 9.31013 10.3495 9.31013 10.1591V3.79311C9.31009 3.60268 9.15567 3.4483 8.96525 3.4483Z" fill="#41479B"/>
<path d="M0.968063 4.23976L1.04439 4.46867L1.28568 4.4705C1.31693 4.47078 1.32986 4.51062 1.30474 4.52917L1.11064 4.67253L1.18345 4.90257C1.19291 4.93234 1.15896 4.95702 1.13353 4.93882L0.937243 4.79855L0.740954 4.93886C0.715525 4.95702 0.681658 4.93238 0.691033 4.90261L0.763845 4.67257L0.569744 4.52921C0.544627 4.51062 0.557557 4.47081 0.588807 4.47054L0.830095 4.46871L0.906423 4.2398C0.916266 4.21011 0.958141 4.21011 0.968063 4.23976Z" fill="#F5F5F5"/>
<path d="M0.968063 5.43718L1.04439 5.66609L1.28568 5.66792C1.31693 5.66819 1.32986 5.70804 1.30474 5.72659L1.11064 5.86995L1.18345 6.09999C1.19291 6.12976 1.15896 6.15444 1.13353 6.13624L0.937243 5.99597L0.740954 6.13628C0.715525 6.15444 0.681658 6.12979 0.691033 6.10003L0.763845 5.86999L0.569744 5.72663C0.544627 5.70804 0.557557 5.66823 0.588807 5.66796L0.830095 5.66612L0.906423 5.43722C0.916266 5.40757 0.958141 5.40757 0.968063 5.43718Z" fill="#F5F5F5"/>
<path d="M0.968063 6.63463L1.04439 6.86354L1.28568 6.86537C1.31693 6.86565 1.32986 6.90549 1.30474 6.92405L1.11064 7.06741L1.18345 7.29745C1.19291 7.32721 1.15896 7.3519 1.13353 7.3337L0.937243 7.19342L0.740954 7.33374C0.715525 7.3519 0.681658 7.32725 0.691033 7.29749L0.763845 7.06744L0.569744 6.92408C0.544627 6.90549 0.557557 6.86569 0.588807 6.86541L0.830095 6.86358L0.906423 6.63467C0.916266 6.60502 0.958141 6.60502 0.968063 6.63463Z" fill="#F5F5F5"/>
<path d="M0.968063 7.83205L1.04439 8.06095L1.28568 8.06279C1.31693 8.06306 1.32986 8.10291 1.30474 8.12146L1.11064 8.26482L1.18345 8.49486C1.19291 8.52462 1.15896 8.54931 1.13353 8.53111L0.937243 8.39084L0.740954 8.53115C0.715525 8.54931 0.681658 8.52466 0.691033 8.4949L0.763845 8.26486L0.569744 8.1215C0.544627 8.10291 0.557557 8.0631 0.588807 8.06283L0.830095 8.06099L0.906423 7.83208C0.916266 7.8024 0.958141 7.8024 0.968063 7.83205Z" fill="#F5F5F5"/>
<path d="M0.968063 9.02946L1.04439 9.25837L1.28568 9.26021C1.31693 9.26048 1.32986 9.30032 1.30474 9.31888L1.11064 9.46224L1.18345 9.69228C1.19291 9.72205 1.15896 9.74673 1.13353 9.72853L0.937243 9.58826L0.740954 9.72857C0.715525 9.74673 0.681658 9.72209 0.691033 9.69232L0.763845 9.46228L0.569744 9.31892C0.544627 9.30032 0.557557 9.26052 0.588807 9.26025L0.830095 9.25841L0.906423 9.0295C0.916266 8.99978 0.958141 8.99978 0.968063 9.02946Z" fill="#F5F5F5"/>
<path d="M1.89748 4.82683L1.9738 5.05574L2.21509 5.05757C2.24634 5.05785 2.25927 5.09769 2.23415 5.11625L2.04005 5.25961L2.11287 5.48964C2.12232 5.51941 2.08837 5.5441 2.06294 5.52589L1.86666 5.38558L1.67037 5.52589C1.64494 5.54406 1.61107 5.51941 1.62045 5.48964L1.69326 5.25961L1.49916 5.11625C1.47404 5.09765 1.48697 5.05785 1.51822 5.05757L1.75951 5.05574L1.83584 4.82683C1.84564 4.79722 1.88759 4.79722 1.89748 4.82683Z" fill="#F5F5F5"/>
<path d="M1.89748 6.02431L1.9738 6.25321L2.21509 6.25505C2.24634 6.25532 2.25927 6.29517 2.23415 6.31372L2.04005 6.45708L2.11287 6.68711C2.12232 6.71688 2.08837 6.74157 2.06294 6.72336L1.86666 6.58305L1.67037 6.72336C1.64494 6.74153 1.61107 6.71692 1.62045 6.68711L1.69326 6.45708L1.49916 6.31372C1.47404 6.29513 1.48697 6.25532 1.51822 6.25505L1.75951 6.25321L1.83584 6.02431C1.84564 5.99466 1.88759 5.99466 1.89748 6.02431Z" fill="#F5F5F5"/>
<path d="M1.89748 7.2217L1.9738 7.4506L2.21509 7.45244C2.24634 7.45271 2.25927 7.49256 2.23415 7.51111L2.04005 7.65447L2.11287 7.88451C2.12232 7.91428 2.08837 7.93896 2.06294 7.92076L1.86666 7.78045L1.67037 7.92076C1.64494 7.93892 1.61107 7.91428 1.62045 7.88451L1.69326 7.65447L1.49916 7.51111C1.47404 7.49252 1.48697 7.45271 1.51822 7.45244L1.75951 7.4506L1.83584 7.2217C1.84564 7.19205 1.88759 7.19205 1.89748 7.2217Z" fill="#F5F5F5"/>
<path d="M1.89748 8.41912L1.9738 8.64802L2.21509 8.64986C2.24634 8.65013 2.25927 8.68998 2.23415 8.70853L2.04005 8.85189L2.11287 9.08193C2.12232 9.1117 2.08837 9.13638 2.06294 9.11818L1.86666 8.97787L1.67037 9.11818C1.64494 9.13634 1.61107 9.1117 1.62045 9.08193L1.69326 8.85189L1.49916 8.70853C1.47404 8.68994 1.48697 8.65013 1.51822 8.64986L1.75951 8.64802L1.83584 8.41912C1.84564 8.38951 1.88759 8.38951 1.89748 8.41912Z" fill="#F5F5F5"/>
<path d="M2.82689 4.23977L2.90322 4.46867L3.14451 4.47051C3.17576 4.47078 3.18869 4.51062 3.16357 4.52918L2.96947 4.67254L3.04228 4.90257C3.05174 4.93234 3.01779 4.95702 2.99236 4.93882L2.79607 4.79851L2.59978 4.93882C2.57435 4.95699 2.54048 4.93234 2.54986 4.90257L2.62267 4.67254L2.42857 4.52918C2.40345 4.51058 2.41638 4.47078 2.44763 4.47051L2.68892 4.46867L2.76525 4.23977C2.77509 4.21012 2.81701 4.21012 2.82689 4.23977Z" fill="#F5F5F5"/>
<path d="M2.82689 5.43718L2.90322 5.66609L3.14451 5.66793C3.17576 5.6682 3.18869 5.70804 3.16357 5.7266L2.96947 5.86996L3.04228 6.1C3.05174 6.12976 3.01779 6.15445 2.99236 6.13625L2.79607 5.99593L2.59978 6.13625C2.57435 6.15441 2.54048 6.12976 2.54986 6.1L2.62267 5.86996L2.42857 5.7266C2.40345 5.708 2.41638 5.6682 2.44763 5.66793L2.68892 5.66609L2.76525 5.43718C2.77509 5.40758 2.81701 5.40758 2.82689 5.43718Z" fill="#F5F5F5"/>
<path d="M2.82689 6.63463L2.90322 6.86354L3.14451 6.86538C3.17576 6.86565 3.18869 6.9055 3.16357 6.92405L2.96947 7.06741L3.04228 7.29746C3.05174 7.32722 3.01779 7.35191 2.99236 7.33371L2.79607 7.19339L2.59978 7.33371C2.57435 7.35187 2.54048 7.32722 2.54986 7.29746L2.62267 7.06741L2.42857 6.92405C2.40345 6.90546 2.41638 6.86565 2.44763 6.86538L2.68892 6.86354L2.76525 6.63463C2.77509 6.60502 2.81701 6.60502 2.82689 6.63463Z" fill="#F5F5F5"/>
<path d="M2.82689 7.83205L2.90322 8.06096L3.14451 8.06279C3.17576 8.06307 3.18869 8.10291 3.16357 8.12146L2.96947 8.26482L3.04228 8.49486C3.05174 8.52463 3.01779 8.54932 2.99236 8.53111L2.79607 8.3908L2.59978 8.53111C2.57435 8.54928 2.54048 8.52463 2.54986 8.49486L2.62267 8.26482L2.42857 8.12146C2.40345 8.10287 2.41638 8.06307 2.44763 8.06279L2.68892 8.06096L2.76525 7.83205C2.77509 7.8024 2.81701 7.8024 2.82689 7.83205Z" fill="#F5F5F5"/>
<path d="M2.82689 9.02947L2.90322 9.25838L3.14451 9.26021C3.17576 9.26048 3.18869 9.30033 3.16357 9.31888L2.96947 9.46224L3.04228 9.69228C3.05174 9.72205 3.01779 9.74674 2.99236 9.72853L2.79607 9.58822L2.59978 9.72853C2.57435 9.7467 2.54048 9.72205 2.54986 9.69228L2.62267 9.46224L2.42857 9.31888C2.40345 9.30029 2.41638 9.26048 2.44763 9.26021L2.68892 9.25838L2.76525 9.02947C2.77509 8.99978 2.81701 8.99978 2.82689 9.02947Z" fill="#F5F5F5"/>
<path d="M3.75634 4.82683L3.83267 5.05574L4.07396 5.05757C4.10521 5.05785 4.11814 5.09769 4.09302 5.11625L3.89892 5.25961L3.97173 5.48964C3.98118 5.51941 3.94724 5.5441 3.92181 5.52589L3.72552 5.38558L3.52923 5.52589C3.5038 5.54406 3.46993 5.51941 3.47931 5.48964L3.55212 5.25961L3.35802 5.11625C3.3329 5.09765 3.34583 5.05785 3.37708 5.05757L3.61837 5.05574L3.6947 4.82683C3.7045 4.79722 3.74646 4.79722 3.75634 4.82683Z" fill="#F5F5F5"/>
<path d="M3.75634 6.02431L3.83267 6.25321L4.07396 6.25505C4.10521 6.25532 4.11814 6.29517 4.09302 6.31372L3.89892 6.45708L3.97173 6.68711C3.98118 6.71688 3.94724 6.74157 3.92181 6.72336L3.72552 6.58305L3.52923 6.72336C3.5038 6.74153 3.46993 6.71692 3.47931 6.68711L3.55212 6.45708L3.35802 6.31372C3.3329 6.29513 3.34583 6.25532 3.37708 6.25505L3.61837 6.25321L3.6947 6.02431C3.7045 5.99466 3.74646 5.99466 3.75634 6.02431Z" fill="#F5F5F5"/>
<path d="M3.75634 7.2217L3.83267 7.4506L4.07396 7.45244C4.10521 7.45271 4.11814 7.49256 4.09302 7.51111L3.89892 7.65447L3.97173 7.88451C3.98118 7.91428 3.94724 7.93896 3.92181 7.92076L3.72552 7.78045L3.52923 7.92076C3.5038 7.93892 3.46993 7.91428 3.47931 7.88451L3.55212 7.65447L3.35802 7.51111C3.3329 7.49252 3.34583 7.45271 3.37708 7.45244L3.61837 7.4506L3.6947 7.2217C3.7045 7.19205 3.74646 7.19205 3.75634 7.2217Z" fill="#F5F5F5"/>
<path d="M3.75634 8.41912L3.83267 8.64802L4.07396 8.64986C4.10521 8.65013 4.11814 8.68998 4.09302 8.70853L3.89892 8.85189L3.97173 9.08193C3.98118 9.1117 3.94724 9.13638 3.92181 9.11818L3.72552 8.97787L3.52923 9.11818C3.5038 9.13634 3.46993 9.1117 3.47931 9.08193L3.55212 8.85189L3.35802 8.70853C3.3329 8.68994 3.34583 8.65013 3.37708 8.64986L3.61837 8.64802L3.6947 8.41912C3.7045 8.38951 3.74646 8.38951 3.75634 8.41912Z" fill="#F5F5F5"/>
<path d="M4.68576 4.23977L4.76209 4.46867L5.00338 4.47051C5.03463 4.47078 5.04756 4.51062 5.02244 4.52918L4.82834 4.67254L4.90115 4.90257C4.91061 4.93234 4.87666 4.95702 4.85123 4.93882L4.6549 4.79851L4.45861 4.93882C4.43318 4.95699 4.39932 4.93234 4.40869 4.90257L4.48151 4.67254L4.2874 4.52918C4.26229 4.51058 4.27522 4.47078 4.30647 4.47051L4.54776 4.46867L4.62408 4.23977C4.63397 4.21012 4.67588 4.21012 4.68576 4.23977Z" fill="#F5F5F5"/>
<path d="M4.68576 5.43718L4.76209 5.66609L5.00338 5.66793C5.03463 5.6682 5.04756 5.70804 5.02244 5.7266L4.82834 5.86996L4.90115 6.1C4.91061 6.12976 4.87666 6.15445 4.85123 6.13625L4.6549 5.99593L4.45861 6.13625C4.43318 6.15441 4.39932 6.12976 4.40869 6.1L4.48151 5.86996L4.2874 5.7266C4.26229 5.708 4.27522 5.6682 4.30647 5.66793L4.54776 5.66609L4.62408 5.43718C4.63397 5.40758 4.67588 5.40758 4.68576 5.43718Z" fill="#F5F5F5"/>
<path d="M4.68576 6.63463L4.76209 6.86354L5.00338 6.86538C5.03463 6.86565 5.04756 6.9055 5.02244 6.92405L4.82834 7.06741L4.90115 7.29746C4.91061 7.32722 4.87666 7.35191 4.85123 7.33371L4.6549 7.19339L4.45861 7.33371C4.43318 7.35187 4.39932 7.32722 4.40869 7.29746L4.48151 7.06741L4.2874 6.92405C4.26229 6.90546 4.27522 6.86565 4.30647 6.86538L4.54776 6.86354L4.62408 6.63463C4.63397 6.60502 4.67588 6.60502 4.68576 6.63463Z" fill="#F5F5F5"/>
<path d="M4.68576 7.83205L4.76209 8.06096L5.00338 8.06279C5.03463 8.06307 5.04756 8.10291 5.02244 8.12146L4.82834 8.26482L4.90115 8.49486C4.91061 8.52463 4.87666 8.54932 4.85123 8.53111L4.6549 8.3908L4.45861 8.53111C4.43318 8.54928 4.39932 8.52463 4.40869 8.49486L4.48151 8.26482L4.2874 8.12146C4.26229 8.10287 4.27522 8.06307 4.30647 8.06279L4.54776 8.06096L4.62408 7.83205C4.63397 7.8024 4.67588 7.8024 4.68576 7.83205Z" fill="#F5F5F5"/>
<path d="M4.68576 9.02947L4.76209 9.25838L5.00338 9.26021C5.03463 9.26048 5.04756 9.30033 5.02244 9.31888L4.82834 9.46224L4.90115 9.69228C4.91061 9.72205 4.87666 9.74674 4.85123 9.72853L4.6549 9.58822L4.45861 9.72853C4.43318 9.7467 4.39932 9.72205 4.40869 9.69228L4.48151 9.46224L4.2874 9.31888C4.26229 9.30029 4.27522 9.26048 4.30647 9.26021L4.54776 9.25838L4.62408 9.02947C4.63397 8.99978 4.67588 8.99978 4.68576 9.02947Z" fill="#F5F5F5"/>
<path d="M5.61517 4.82683L5.6915 5.05574L5.93279 5.05757C5.96404 5.05785 5.97697 5.09769 5.95185 5.11625L5.75775 5.25961L5.83056 5.48964C5.84001 5.51941 5.80607 5.5441 5.78064 5.52589L5.58435 5.38558L5.38806 5.52589C5.36263 5.54406 5.32876 5.51941 5.33814 5.48964L5.41095 5.25961L5.21685 5.11625C5.19173 5.09765 5.20466 5.05785 5.23591 5.05757L5.4772 5.05574L5.55353 4.82683C5.56341 4.79722 5.60529 4.79722 5.61517 4.82683Z" fill="#F5F5F5"/>
<path d="M5.61517 6.02431L5.6915 6.25321L5.93279 6.25505C5.96404 6.25532 5.97697 6.29517 5.95185 6.31372L5.75775 6.45708L5.83056 6.68711C5.84001 6.71688 5.80607 6.74157 5.78064 6.72336L5.58435 6.58305L5.38806 6.72336C5.36263 6.74153 5.32876 6.71692 5.33814 6.68711L5.41095 6.45708L5.21685 6.31372C5.19173 6.29513 5.20466 6.25532 5.23591 6.25505L5.4772 6.25321L5.55353 6.02431C5.56341 5.99466 5.60529 5.99466 5.61517 6.02431Z" fill="#F5F5F5"/>
<path d="M5.61517 7.2217L5.6915 7.4506L5.93279 7.45244C5.96404 7.45271 5.97697 7.49256 5.95185 7.51111L5.75775 7.65447L5.83056 7.88451C5.84001 7.91428 5.80607 7.93896 5.78064 7.92076L5.58435 7.78045L5.38806 7.92076C5.36263 7.93892 5.32876 7.91428 5.33814 7.88451L5.41095 7.65447L5.21685 7.51111C5.19173 7.49252 5.20466 7.45271 5.23591 7.45244L5.4772 7.4506L5.55353 7.2217C5.56341 7.19205 5.60529 7.19205 5.61517 7.2217Z" fill="#F5F5F5"/>
<path d="M5.61517 8.41912L5.6915 8.64802L5.93279 8.64986C5.96404 8.65013 5.97697 8.68998 5.95185 8.70853L5.75775 8.85189L5.83056 9.08193C5.84001 9.1117 5.80607 9.13638 5.78064 9.11818L5.58435 8.97787L5.38806 9.11818C5.36263 9.13634 5.32876 9.1117 5.33814 9.08193L5.41095 8.85189L5.21685 8.70853C5.19173 8.68994 5.20466 8.65013 5.23591 8.64986L5.4772 8.64802L5.55353 8.41912C5.56341 8.38951 5.60529 8.38951 5.61517 8.41912Z" fill="#F5F5F5"/>
<path d="M6.54462 4.23977L6.62095 4.46867L6.86224 4.47051C6.89349 4.47078 6.90642 4.51062 6.8813 4.52918L6.6872 4.67254L6.76001 4.90257C6.76947 4.93234 6.73552 4.95702 6.71009 4.93882L6.5138 4.79851L6.31751 4.93882C6.29208 4.95699 6.25821 4.93234 6.26759 4.90257L6.3404 4.67254L6.1463 4.52918C6.12118 4.51058 6.13411 4.47078 6.16536 4.47051L6.40665 4.46867L6.48298 4.23977C6.49278 4.21012 6.53474 4.21012 6.54462 4.23977Z" fill="#F5F5F5"/>
<path d="M6.54462 5.43718L6.62095 5.66609L6.86224 5.66793C6.89349 5.6682 6.90642 5.70804 6.8813 5.7266L6.6872 5.86996L6.76001 6.1C6.76947 6.12976 6.73552 6.15445 6.71009 6.13625L6.5138 5.99593L6.31751 6.13625C6.29208 6.15441 6.25821 6.12976 6.26759 6.1L6.3404 5.86996L6.1463 5.7266C6.12118 5.708 6.13411 5.6682 6.16536 5.66793L6.40665 5.66609L6.48298 5.43718C6.49278 5.40758 6.53474 5.40758 6.54462 5.43718Z" fill="#F5F5F5"/>
<path d="M6.54462 6.63463L6.62095 6.86354L6.86224 6.86538C6.89349 6.86565 6.90642 6.9055 6.8813 6.92405L6.6872 7.06741L6.76001 7.29746C6.76947 7.32722 6.73552 7.35191 6.71009 7.33371L6.5138 7.19339L6.31751 7.33371C6.29208 7.35187 6.25821 7.32722 6.26759 7.29746L6.3404 7.06741L6.1463 6.92405C6.12118 6.90546 6.13411 6.86565 6.16536 6.86538L6.40665 6.86354L6.48298 6.63463C6.49278 6.60502 6.53474 6.60502 6.54462 6.63463Z" fill="#F5F5F5"/>
<path d="M6.54462 7.83205L6.62095 8.06096L6.86224 8.06279C6.89349 8.06307 6.90642 8.10291 6.8813 8.12146L6.6872 8.26482L6.76001 8.49486C6.76947 8.52463 6.73552 8.54932 6.71009 8.53111L6.5138 8.3908L6.31751 8.53111C6.29208 8.54928 6.25821 8.52463 6.26759 8.49486L6.3404 8.26482L6.1463 8.12146C6.12118 8.10287 6.13411 8.06307 6.16536 8.06279L6.40665 8.06096L6.48298 7.83205C6.49278 7.8024 6.53474 7.8024 6.54462 7.83205Z" fill="#F5F5F5"/>
<path d="M6.54462 9.02947L6.62095 9.25838L6.86224 9.26021C6.89349 9.26048 6.90642 9.30033 6.8813 9.31888L6.6872 9.46224L6.76001 9.69228C6.76947 9.72205 6.73552 9.74674 6.71009 9.72853L6.5138 9.58822L6.31751 9.72853C6.29208 9.7467 6.25821 9.72205 6.26759 9.69228L6.3404 9.46224L6.1463 9.31888C6.12118 9.30029 6.13411 9.26048 6.16536 9.26021L6.40665 9.25838L6.48298 9.02947C6.49278 8.99978 6.53474 8.99978 6.54462 9.02947Z" fill="#F5F5F5"/>
<path d="M7.47403 4.82683L7.55036 5.05574L7.79164 5.05757C7.82289 5.05785 7.83582 5.09769 7.81071 5.11625L7.61661 5.25961L7.68942 5.48964C7.69887 5.51941 7.66493 5.5441 7.6395 5.52589L7.44321 5.38558L7.24692 5.52589C7.22149 5.54406 7.18762 5.51941 7.197 5.48964L7.26981 5.25961L7.07571 5.11625C7.05059 5.09765 7.06352 5.05785 7.09477 5.05757L7.33606 5.05574L7.41239 4.82683C7.42223 4.79722 7.46418 4.79722 7.47403 4.82683Z" fill="#F5F5F5"/>
<path d="M7.47403 6.02431L7.55036 6.25321L7.79164 6.25505C7.82289 6.25532 7.83582 6.29517 7.81071 6.31372L7.61661 6.45708L7.68942 6.68711C7.69887 6.71688 7.66493 6.74157 7.6395 6.72336L7.44321 6.58305L7.24692 6.72336C7.22149 6.74153 7.18762 6.71692 7.197 6.68711L7.26981 6.45708L7.07571 6.31372C7.05059 6.29513 7.06352 6.25532 7.09477 6.25505L7.33606 6.25321L7.41239 6.02431C7.42223 5.99466 7.46418 5.99466 7.47403 6.02431Z" fill="#F5F5F5"/>
<path d="M7.47403 7.2217L7.55036 7.4506L7.79164 7.45244C7.82289 7.45271 7.83582 7.49256 7.81071 7.51111L7.61661 7.65447L7.68942 7.88451C7.69887 7.91428 7.66493 7.93896 7.6395 7.92076L7.44321 7.78045L7.24692 7.92076C7.22149 7.93892 7.18762 7.91428 7.197 7.88451L7.26981 7.65447L7.07571 7.51111C7.05059 7.49252 7.06352 7.45271 7.09477 7.45244L7.33606 7.4506L7.41239 7.2217C7.42223 7.19205 7.46418 7.19205 7.47403 7.2217Z" fill="#F5F5F5"/>
<path d="M7.47403 8.41912L7.55036 8.64802L7.79164 8.64986C7.82289 8.65013 7.83582 8.68998 7.81071 8.70853L7.61661 8.85189L7.68942 9.08193C7.69887 9.1117 7.66493 9.13638 7.6395 9.11818L7.44321 8.97787L7.24692 9.11818C7.22149 9.13634 7.18762 9.1117 7.197 9.08193L7.26981 8.85189L7.07571 8.70853C7.05059 8.68994 7.06352 8.65013 7.09477 8.64986L7.33606 8.64802L7.41239 8.41912C7.42223 8.38951 7.46418 8.38951 7.47403 8.41912Z" fill="#F5F5F5"/>
<path d="M8.40347 4.23977L8.4798 4.46867L8.72108 4.47051C8.75233 4.47078 8.76526 4.51062 8.74015 4.52918L8.54605 4.67254L8.61886 4.90257C8.62831 4.93234 8.59437 4.95702 8.56894 4.93882L8.37265 4.79851L8.17636 4.93882C8.15093 4.95699 8.11706 4.93234 8.12644 4.90257L8.19925 4.67254L8.00515 4.52918C7.98003 4.51058 7.99296 4.47078 8.02421 4.47051L8.2655 4.46867L8.34183 4.23977C8.35167 4.21012 8.39355 4.21012 8.40347 4.23977Z" fill="#F5F5F5"/>
<path d="M8.40347 5.43718L8.4798 5.66609L8.72108 5.66793C8.75233 5.6682 8.76526 5.70804 8.74015 5.7266L8.54605 5.86996L8.61886 6.1C8.62831 6.12976 8.59437 6.15445 8.56894 6.13625L8.37265 5.99593L8.17636 6.13625C8.15093 6.15441 8.11706 6.12976 8.12644 6.1L8.19925 5.86996L8.00515 5.7266C7.98003 5.708 7.99296 5.6682 8.02421 5.66793L8.2655 5.66609L8.34183 5.43718C8.35167 5.40758 8.39355 5.40758 8.40347 5.43718Z" fill="#F5F5F5"/>
<path d="M8.40347 6.63463L8.4798 6.86354L8.72108 6.86538C8.75233 6.86565 8.76526 6.9055 8.74015 6.92405L8.54605 7.06741L8.61886 7.29746C8.62831 7.32722 8.59437 7.35191 8.56894 7.33371L8.37265 7.19339L8.17636 7.33371C8.15093 7.35187 8.11706 7.32722 8.12644 7.29746L8.19925 7.06741L8.00515 6.92405C7.98003 6.90546 7.99296 6.86565 8.02421 6.86538L8.2655 6.86354L8.34183 6.63463C8.35167 6.60502 8.39355 6.60502 8.40347 6.63463Z" fill="#F5F5F5"/>
<path d="M8.40347 7.83205L8.4798 8.06096L8.72108 8.06279C8.75233 8.06307 8.76526 8.10291 8.74015 8.12146L8.54605 8.26482L8.61886 8.49486C8.62831 8.52463 8.59437 8.54932 8.56894 8.53111L8.37265 8.3908L8.17636 8.53111C8.15093 8.54928 8.11706 8.52463 8.12644 8.49486L8.19925 8.26482L8.00515 8.12146C7.98003 8.10287 7.99296 8.06307 8.02421 8.06279L8.2655 8.06096L8.34183 7.83205C8.35167 7.8024 8.39355 7.8024 8.40347 7.83205Z" fill="#F5F5F5"/>
<path d="M8.40347 9.02947L8.4798 9.25838L8.72108 9.26021C8.75233 9.26048 8.76526 9.30033 8.74015 9.31888L8.54605 9.46224L8.61886 9.69228C8.62831 9.72205 8.59437 9.74674 8.56894 9.72853L8.37265 9.58822L8.17636 9.72853C8.15093 9.7467 8.11706 9.72205 8.12644 9.69228L8.19925 9.46224L8.00515 9.31888C7.98003 9.30029 7.99296 9.26048 8.02421 9.26021L8.2655 9.25838L8.34183 9.02947C8.35167 8.99978 8.39355 8.99978 8.40347 9.02947Z" fill="#F5F5F5"/>
</g>
<defs>
<clipPath id="clip0">
<rect x="-0.000244141" width="20" height="20" fill="white"/>
</clipPath>
</defs>
</svg>
